<svg width="96"
     height="35"
     viewBox="0 0 96 35"
     fill="none"
     xmlns="http://www.w3.org/2000/svg">
    <g clipPath="url(#clip0_2087_3669)">
        <path d="M8.3125 25.959H14.5625C14.8685 25.959 15.1289 25.8516 15.3438 25.6367C15.5651 25.4154 15.6758 25.1517 15.6758 24.8457C15.6758 24.5332 15.5651 24.2695 15.3438 24.0547C15.1289 23.8333 14.8685 23.7227 14.5625 23.7227H8.3125V25.959ZM3.19531 19.8848H15.8418C16.7272 19.8783 17.554 20.0996 18.3223 20.5488C19.0905 20.9915 19.6992 21.597 20.1484 22.3652C20.5977 23.1335 20.8158 23.9603 20.8027 24.8457C20.8158 25.7311 20.5977 26.5579 20.1484 27.3262C19.6992 28.0944 19.0905 28.7031 18.3223 29.1523C17.554 29.6016 16.7272 29.8197 15.8418 29.8066H8.3125V33.0098H3.19531V19.8848ZM35.002 26.5938V19.8652H40.1289V26.916C40.1354 27.8796 39.9824 28.7357 39.6699 29.4844C39.3574 30.2266 38.9342 30.8353 38.4004 31.3105C37.873 31.7858 37.2188 32.1764 36.4375 32.4824C35.6628 32.7884 34.8457 33.0033 33.9863 33.127C33.1335 33.2507 32.1927 33.3125 31.1641 33.3125C30.1354 33.3125 29.1914 33.2507 28.332 33.127C27.4792 33.0033 26.6621 32.7884 25.8809 32.4824C25.1061 32.1764 24.4518 31.7858 23.918 31.3105C23.3906 30.8353 22.9707 30.2266 22.6582 29.4844C22.3457 28.7357 22.1927 27.8796 22.1992 26.916V19.8652H27.3164V26.5938C27.3099 27.0104 27.375 27.375 27.5117 27.6875C27.6484 27.9935 27.8275 28.2376 28.0488 28.4199C28.2702 28.6022 28.5534 28.7487 28.8984 28.8594C29.25 28.9701 29.5983 29.0449 29.9434 29.084C30.2949 29.123 30.7018 29.1458 31.1641 29.1523C31.6263 29.1458 32.0299 29.123 32.375 29.084C32.7266 29.0449 33.0749 28.9701 33.4199 28.8594C33.765 28.7487 34.0482 28.6022 34.2695 28.4199C34.4909 28.2376 34.6699 27.9935 34.8066 27.6875C34.9434 27.375 35.0085 27.0104 35.002 26.5938ZM42.4336 19.8652H47.5508V28.8301H57.7949V32.9902H42.4336V19.8652ZM64.0254 24.1914C64.0254 24.4518 64.3118 24.6276 64.8848 24.7188C65.4577 24.8099 66.3887 24.8848 67.6777 24.9434C69.8066 25.054 71.3757 25.2038 72.3848 25.3926C74.8001 25.8548 76.1445 26.7565 76.418 28.0977C76.457 28.2799 76.4766 28.472 76.4766 28.6738C76.4766 29.403 76.3105 30.0443 75.9785 30.5977C75.653 31.1445 75.2201 31.5872 74.6797 31.9258C74.1393 32.2643 73.4753 32.541 72.6875 32.7559C71.8997 32.9707 71.0957 33.1172 70.2754 33.1953C69.4551 33.2734 68.5534 33.3125 67.5703 33.3125C66.8542 33.3125 66.2129 33.2962 65.6465 33.2637C65.0801 33.2376 64.4909 33.1823 63.8789 33.0977C63.2734 33.013 62.7396 32.9023 62.2773 32.7656C61.8216 32.6289 61.3724 32.4434 60.9297 32.209C60.4935 31.9746 60.1257 31.6979 59.8262 31.3789C59.5332 31.0534 59.2826 30.666 59.0742 30.2168C58.8724 29.7611 58.7357 29.2467 58.6641 28.6738H64.0254C64.2988 29.1491 64.735 29.4811 65.334 29.6699C65.9395 29.8587 66.6849 29.9531 67.5703 29.9531C68.0065 29.9531 68.4167 29.9336 68.8008 29.8945C69.1914 29.8555 69.5658 29.7904 69.9238 29.6992C70.2884 29.6081 70.5781 29.4746 70.793 29.2988C71.0078 29.123 71.1152 28.9147 71.1152 28.6738C71.1152 28.5827 71.0762 28.5013 70.998 28.4297C70.9199 28.3516 70.7897 28.2897 70.6074 28.2441C70.4316 28.1921 70.2526 28.1497 70.0703 28.1172C69.8945 28.0846 69.6406 28.0553 69.3086 28.0293C68.9831 27.9967 68.6999 27.974 68.459 27.9609C68.2246 27.9479 67.8926 27.9316 67.4629 27.9121C65.334 27.8014 63.765 27.6517 62.7559 27.4629C60.3405 27.0007 58.9961 26.099 58.7227 24.7578C58.6836 24.5755 58.6641 24.3867 58.6641 24.1914C58.6641 21.0924 61.6328 19.543 67.5703 19.543C68.293 19.5495 68.9342 19.569 69.4941 19.6016C70.054 19.6276 70.64 19.6829 71.252 19.7676C71.8704 19.8457 72.4076 19.9531 72.8633 20.0898C73.319 20.2266 73.765 20.4121 74.2012 20.6465C74.6439 20.8809 75.0117 21.1576 75.3047 21.4766C75.6042 21.7956 75.8581 22.1862 76.0664 22.6484C76.2747 23.1042 76.4115 23.6185 76.4766 24.1914H71.1152C70.8418 23.7096 70.4056 23.3776 69.8066 23.1953C69.2142 23.0065 68.4688 22.9121 67.5703 22.9121C67.1276 22.9121 66.7142 22.9316 66.3301 22.9707C65.9525 23.0033 65.5781 23.0651 65.207 23.1562C64.8424 23.2474 64.5527 23.3809 64.3379 23.5566C64.1296 23.7324 64.0254 23.944 64.0254 24.1914ZM77.8438 33.0098V19.8848H93.2051V23.2441H82.9609V24.9238H93.2051V27.9609H82.9609V29.6406H93.2051V33.0098H77.8438Z"
              fill="#166FF6" />
        <path d="M42.4409 1.86523H47.5581V14.9902H42.4409V1.86523Z"
              fill="#1F161E" />
        <path d="M34.998 8.81836V1.86523H40.125V14.9902H34.3633L27.3125 6.97266V14.9902H22.1953V1.86523H29.2363L34.998 8.81836Z"
              fill="#1F161E" />
        <path d="M15.998 8.59375V1.86523H21.125V8.91602C21.1315 9.87956 20.9785 10.7357 20.666 11.4844C20.3535 12.2266 19.9303 12.8353 19.3965 13.3105C18.8691 13.7858 18.2148 14.1764 17.4336 14.4824C16.6589 14.7884 15.8418 15.0033 14.9824 15.127C14.1296 15.2507 13.1888 15.3125 12.1602 15.3125C11.1315 15.3125 10.1875 15.2507 9.32812 15.127C8.47526 15.0033 7.6582 14.7884 6.87695 14.4824C6.10221 14.1764 5.44792 13.7858 4.91406 13.3105C4.38672 12.8353 3.9668 12.2266 3.6543 11.4844C3.3418 10.7357 3.1888 9.87956 3.19531 8.91602V1.86523H8.3125V8.59375C8.30599 9.01042 8.37109 9.375 8.50781 9.6875C8.64453 9.99349 8.82357 10.2376 9.04492 10.4199C9.26628 10.6022 9.54948 10.7487 9.89453 10.8594C10.2461 10.9701 10.5944 11.0449 10.9395 11.084C11.291 11.123 11.6979 11.1458 12.1602 11.1523C12.6224 11.1458 13.026 11.123 13.3711 11.084C13.7227 11.0449 14.071 10.9701 14.416 10.8594C14.7611 10.7487 15.0443 10.6022 15.2656 10.4199C15.487 10.2376 15.666 9.99349 15.8027 9.6875C15.9395 9.375 16.0046 9.01042 15.998 8.59375Z"
              fill="#1F161E" />
    </g>
    <defs>
        <clipPath id="clip0_2087_3669">
            <rect width="96"
                  height="35"
                  fill="white" />
        </clipPath>
    </defs>
</svg>