<svg width="123"
     height="30"
     viewBox="0 0 123 30"
     fill="none"
     xmlns="http://www.w3.org/2000/svg">
    <g clipPath="url(#clip0_2_1353)">
        <path d="M37.3125 22.959H43.5625C43.8685 22.959 44.1289 22.8516 44.3438 22.6367C44.5651 22.4154 44.6758 22.1517 44.6758 21.8457C44.6758 21.5332 44.5651 21.2695 44.3438 21.0547C44.1289 20.8333 43.8685 20.7227 43.5625 20.7227H37.3125V22.959ZM32.1953 16.8848H44.8418C45.7272 16.8783 46.554 17.0996 47.3223 17.5488C48.0905 17.9915 48.6992 18.597 49.1484 19.3652C49.5977 20.1335 49.8158 20.9603 49.8027 21.8457C49.8158 22.7311 49.5977 23.5579 49.1484 24.3262C48.6992 25.0944 48.0905 25.7031 47.3223 26.1523C46.554 26.6016 45.7272 26.8197 44.8418 26.8066H37.3125V30.0098H32.1953V16.8848ZM64.002 23.5938V16.8652H69.1289V23.916C69.1354 24.8796 68.9824 25.7357 68.6699 26.4844C68.3574 27.2266 67.9342 27.8353 67.4004 28.3105C66.873 28.7858 66.2188 29.1764 65.4375 29.4824C64.6628 29.7884 63.8457 30.0033 62.9863 30.127C62.1335 30.2507 61.1927 30.3125 60.1641 30.3125C59.1354 30.3125 58.1914 30.2507 57.332 30.127C56.4792 30.0033 55.6621 29.7884 54.8809 29.4824C54.1061 29.1764 53.4518 28.7858 52.918 28.3105C52.3906 27.8353 51.9707 27.2266 51.6582 26.4844C51.3457 25.7357 51.1927 24.8796 51.1992 23.916V16.8652H56.3164V23.5938C56.3099 24.0104 56.375 24.375 56.5117 24.6875C56.6484 24.9935 56.8275 25.2376 57.0488 25.4199C57.2702 25.6022 57.5534 25.7487 57.8984 25.8594C58.25 25.9701 58.5983 26.0449 58.9434 26.084C59.2949 26.123 59.7018 26.1458 60.1641 26.1523C60.6263 26.1458 61.0299 26.123 61.375 26.084C61.7266 26.0449 62.0749 25.9701 62.4199 25.8594C62.765 25.7487 63.0482 25.6022 63.2695 25.4199C63.4909 25.2376 63.6699 24.9935 63.8066 24.6875C63.9434 24.375 64.0085 24.0104 64.002 23.5938ZM71.4336 16.8652H76.5508V25.8301H86.7949V29.9902H71.4336V16.8652ZM93.0254 21.1914C93.0254 21.4518 93.3118 21.6276 93.8848 21.7188C94.4577 21.8099 95.3887 21.8848 96.6777 21.9434C98.8066 22.054 100.376 22.2038 101.385 22.3926C103.8 22.8548 105.145 23.7565 105.418 25.0977C105.457 25.2799 105.477 25.472 105.477 25.6738C105.477 26.403 105.311 27.0443 104.979 27.5977C104.653 28.1445 104.22 28.5872 103.68 28.9258C103.139 29.2643 102.475 29.541 101.688 29.7559C100.9 29.9707 100.096 30.1172 99.2754 30.1953C98.4551 30.2734 97.5534 30.3125 96.5703 30.3125C95.8542 30.3125 95.2129 30.2962 94.6465 30.2637C94.0801 30.2376 93.4909 30.1823 92.8789 30.0977C92.2734 30.013 91.7396 29.9023 91.2773 29.7656C90.8216 29.6289 90.3724 29.4434 89.9297 29.209C89.4935 28.9746 89.1257 28.6979 88.8262 28.3789C88.5332 28.0534 88.2826 27.666 88.0742 27.2168C87.8724 26.7611 87.7357 26.2467 87.6641 25.6738H93.0254C93.2988 26.1491 93.735 26.4811 94.334 26.6699C94.9395 26.8587 95.6849 26.9531 96.5703 26.9531C97.0065 26.9531 97.4167 26.9336 97.8008 26.8945C98.1914 26.8555 98.5658 26.7904 98.9238 26.6992C99.2884 26.6081 99.5781 26.4746 99.793 26.2988C100.008 26.123 100.115 25.9147 100.115 25.6738C100.115 25.5827 100.076 25.5013 99.998 25.4297C99.9199 25.3516 99.7897 25.2897 99.6074 25.2441C99.4316 25.1921 99.2526 25.1497 99.0703 25.1172C98.8945 25.0846 98.6406 25.0553 98.3086 25.0293C97.9831 24.9967 97.6999 24.974 97.459 24.9609C97.2246 24.9479 96.8926 24.9316 96.4629 24.9121C94.334 24.8014 92.765 24.6517 91.7559 24.4629C89.3405 24.0007 87.9961 23.099 87.7227 21.7578C87.6836 21.5755 87.6641 21.3867 87.6641 21.1914C87.6641 18.0924 90.6328 16.543 96.5703 16.543C97.293 16.5495 97.9342 16.569 98.4941 16.6016C99.054 16.6276 99.64 16.6829 100.252 16.7676C100.87 16.8457 101.408 16.9531 101.863 17.0898C102.319 17.2266 102.765 17.4121 103.201 17.6465C103.644 17.8809 104.012 18.1576 104.305 18.4766C104.604 18.7956 104.858 19.1862 105.066 19.6484C105.275 20.1042 105.411 20.6185 105.477 21.1914H100.115C99.8418 20.7096 99.4056 20.3776 98.8066 20.1953C98.2142 20.0065 97.4688 19.9121 96.5703 19.9121C96.1276 19.9121 95.7142 19.9316 95.3301 19.9707C94.9525 20.0033 94.5781 20.0651 94.207 20.1562C93.8424 20.2474 93.5527 20.3809 93.3379 20.5566C93.1296 20.7324 93.0254 20.944 93.0254 21.1914ZM106.844 30.0098V16.8848H122.205V20.2441H111.961V21.9238H122.205V24.9609H111.961V26.6406H122.205V30.0098H106.844Z"
              fill="#166FF6" />
        <path d="M71.4409 0.865234H76.5581V13.9902H71.4409V0.865234Z"
              fill="#1F161E" />
        <path d="M63.998 7.81836V0.865234H69.125V13.9902H63.3633L56.3125 5.97266V13.9902H51.1953V0.865234H58.2363L63.998 7.81836Z"
              fill="#1F161E" />
        <path d="M44.998 7.59375V0.865234H50.125V7.91602C50.1315 8.87956 49.9785 9.73568 49.666 10.4844C49.3535 11.2266 48.9303 11.8353 48.3965 12.3105C47.8691 12.7858 47.2148 13.1764 46.4336 13.4824C45.6589 13.7884 44.8418 14.0033 43.9824 14.127C43.1296 14.2507 42.1888 14.3125 41.1602 14.3125C40.1315 14.3125 39.1875 14.2507 38.3281 14.127C37.4753 14.0033 36.6582 13.7884 35.877 13.4824C35.1022 13.1764 34.4479 12.7858 33.9141 12.3105C33.3867 11.8353 32.9668 11.2266 32.6543 10.4844C32.3418 9.73568 32.1888 8.87956 32.1953 7.91602V0.865234H37.3125V7.59375C37.306 8.01042 37.3711 8.375 37.5078 8.6875C37.6445 8.99349 37.8236 9.23763 38.0449 9.41992C38.2663 9.60221 38.5495 9.7487 38.8945 9.85938C39.2461 9.97005 39.5944 10.0449 39.9395 10.084C40.291 10.123 40.6979 10.1458 41.1602 10.1523C41.6224 10.1458 42.026 10.123 42.3711 10.084C42.7227 10.0449 43.071 9.97005 43.416 9.85938C43.7611 9.7487 44.0443 9.60221 44.2656 9.41992C44.487 9.23763 44.666 8.99349 44.8027 8.6875C44.9395 8.375 45.0046 8.01042 44.998 7.59375Z"
              fill="#1F161E" />
        <path d="M21.819 15.0003C21.819 18.7659 18.7664 21.8185 15.0008 21.8185C11.2352 21.8185 8.18262 18.7659 8.18262 15.0003C8.18262 11.2347 11.2352 8.18213 15.0008 8.18213C18.7664 8.18213 21.819 11.2347 21.819 15.0003Z"
              fill="#1F7EFA" />
        <path d="M24.045 15C24.045 19.9957 19.9952 24.0455 14.9996 24.0455C10.0039 24.0455 5.9541 19.9957 5.9541 15C5.9541 10.0044 10.0039 5.95459 14.9996 5.95459C19.9952 5.95459 24.045 10.0044 24.045 15Z"
              stroke="#1F7EFA" />
        <circle cx="15.0012"
                cy="15.0003"
                r="11.7727"
                stroke="#1F7EFA"
                strokeOpacity="0.8" />
        <circle cx="15"
                cy="15"
                r="14.5"
                stroke="#1F7EFA"
                strokeOpacity="0.6" />
    </g>
    <defs>
        <clipPath id="clip0_2_1353">
            <rect width="123"
                  height="30"
                  fill="white" />
        </clipPath>
    </defs>
</svg>