<svg width="24"
     height="24"
     viewBox="0 0 24 24"
     fill="none"
     xmlns="http://www.w3.org/2000/svg">
    <path d="M5.875 1.5V4.125M18.125 1.5V4.125M1.5 19.875V6.75C1.5 6.05381 1.77656 5.38613 2.26884 4.89384C2.76113 4.40156 3.42881 4.125 4.125 4.125H19.875C20.5712 4.125 21.2389 4.40156 21.7312 4.89384C22.2234 5.38613 22.5 6.05381 22.5 6.75V19.875M1.5 19.875C1.5 20.5712 1.77656 21.2389 2.26884 21.7312C2.76113 22.2234 3.42881 22.5 4.125 22.5H19.875C20.5712 22.5 21.2389 22.2234 21.7312 21.7312C22.2234 21.2389 22.5 20.5712 22.5 19.875M1.5 19.875V11.125C1.5 10.4288 1.77656 9.76113 2.26884 9.26884C2.76113 8.77656 3.42881 8.5 4.125 8.5H19.875C20.5712 8.5 21.2389 8.77656 21.7312 9.26884C22.2234 9.76113 22.5 10.4288 22.5 11.125V19.875"
          stroke="#1F161E"
          stroke-width="1.5"
          stroke-linecap="round"
          stroke-linejoin="round" />
</svg>