<svg version="1.0"
     xmlns="http://www.w3.org/2000/svg"
     width="428.000000pt"
     height="428.000000pt"
     viewBox="0 0 428.000000 428.000000"
     preserveAspectRatio="xMidYMid meet">
    <g transform="translate(0.000000,428.000000) scale(0.100000,-0.100000)"
       fill="#000000"
       stroke="none">
        <path d="M1981 4269 c-729 -77 -1357 -584 -1585 -1281 -102 -309 -120 -622&#xA;-56 -953 22 -109 70 -268 110 -357 l21 -48 49 25 c28 14 50 28 50 31 0 4 -16&#xA;47 -36 96 -45 113 -88 283 -104 411 -18 138 -7 442 19 569 144 700 686 1243&#xA;1379 1384 445 90 914 -5 1297 -261 403 -270 670 -679 763 -1170 13 -68 17&#xA;-142 16 -305 0 -194 -3 -227 -27 -342 -15 -69 -45 -177 -68 -240 -22 -62 -43&#xA;-121 -46 -130 -4 -12 8 -23 46 -42 28 -14 55 -26 60 -26 25 0 120 297 151 467&#xA;35 198 29 471 -15 688 -189 934 -1075 1583 -2024 1484z" />
        <path d="M1570 3546 c-364 -180 -576 -290 -578 -300 -3 -15 96 -16 1185 -14&#xA;1019 3 1188 5 1188 17 0 9 -222 118 -605 297 -333 156 -607 283 -610 283 -3 0&#xA;-264 -127 -580 -283z m1115 4 c294 -137 552 -259 573 -269 37 -20 36 -20&#xA;-1078 -20 l-1115 1 540 268 c297 148 541 269 542 269 1 1 243 -111 538 -249z" />
        <path d="M1050 3100 l0 -70 123 0 c120 0 121 -1 89 -17 -39 -19 -74 -61 -101&#xA;-124 -18 -40 -20 -77 -27 -414 -5 -276 -10 -377 -20 -396 -20 -40 -72 -79&#xA;-105 -79 -28 0 -29 -1 -29 -52 0 -29 3 -70 6 -90 l7 -38 308 0 309 0 0 90 c0&#xA;87 -1 90 -25 96 -14 3 -34 18 -45 31 -19 25 -20 42 -19 467 0 314 4 451 12&#xA;476 11 33 21 39 85 56 8 2 12 25 12 69 l0 65 -290 0 -290 0 0 -70z m365 -171&#xA;l36 -32 -3 -413 -3 -414 -31 -31 c-55 -55 -129 -37 -170 43 -21 41 -21 766 1&#xA;808 38 74 111 91 170 39z" />
        <path d="M1690 3100 c0 -66 1 -70 23 -70 12 0 33 -7 46 -16 49 -35 51 -53 51&#xA;-501 0 -478 2 -465 -84 -498 l-46 -18 0 -88 0 -89 160 0 161 0 -3 92 c-3 92&#xA;-3 92 -32 99 -16 5 -39 18 -52 30 l-24 22 0 445 0 444 39 39 c29 29 47 39 71&#xA;39 57 0 110 -77 110 -162 0 -19 5 -28 16 -28 11 0 14 5 10 16 -3 9 -6 83 -6&#xA;165 l0 149 -220 0 -220 0 0 -70z" />
        <path d="M2220 3005 c0 -91 4 -165 9 -165 12 0 21 26 21 63 0 18 9 51 20 74&#xA;31 68 91 69 127 0 15 -29 16 -76 14 -466 -3 -487 0 -467 -77 -497 l-44 -17 0&#xA;-88 0 -89 160 0 160 0 0 95 c0 84 -2 95 -17 95 -28 1 -63 24 -84 56 -18 27&#xA;-19 51 -19 452 0 457 2 473 54 507 21 14 29 15 53 3 36 -17 73 -90 73 -145 0&#xA;-24 3 -43 8 -43 4 0 6 74 4 165 l-3 165 -229 0 -230 0 0 -165z" />
        <path d="M2770 3123 c0 -27 -3 -58 -6 -70 -5 -17 -2 -23 9 -23 29 0 65 -22 76&#xA;-47 7 -15 11 -111 11 -270 0 -229 2 -250 21 -289 34 -72 130 -103 212 -69 15&#xA;6 17 -1 17 -76 0 -102 -26 -165 -94 -234 l-45 -45 -117 0 -116 0 6 -31 c3 -17&#xA;6 -58 6 -90 l0 -59 250 0 250 0 0 90 0 90 -81 0 -81 0 27 31 c14 18 36 50 48&#xA;73 21 39 22 59 32 464 10 406 11 424 30 438 11 9 32 18 48 21 26 5 27 7 27 74&#xA;l0 69 -115 0 -115 0 0 -66 c0 -57 4 -71 26 -98 l27 -31 -7 -249 c-5 -158 -12&#xA;-255 -19 -267 -27 -44 -107 -48 -143 -7 -21 22 -20 13 -16 335 2 188 2 192 27&#xA;221 21 25 25 40 25 96 l0 66 -110 0 -110 0 0 -47z" />
        <path d="M620 3145 c0 -13 26 -15 170 -15 144 0 170 2 170 15 0 13 -26 15&#xA;-170 15 -144 0 -170 -2 -170 -15z" />
        <path d="M3390 3145 c0 -13 24 -15 160 -15 136 0 160 2 160 15 0 13 -24 15&#xA;-160 15 -136 0 -160 -2 -160 -15z" />
        <path d="M610 1735 c0 -13 179 -15 1550 -15 1371 0 1550 2 1550 15 0 13 -179&#xA;15 -1550 15 -1371 0 -1550 -2 -1550 -15z" />
        <path d="M2490 1659 c-135 -16 -235 -55 -288 -112 l-24 -25 -51 39 c-92 70&#xA;-149 82 -407 87 l-225 3 -117 -278 c-65 -153 -120 -286 -124 -295 -5 -14 20&#xA;-25 158 -69 193 -62 472 -161 616 -218 56 -23 117 -41 135 -41 18 0 98 25 177&#xA;55 80 30 283 100 452 156 l307 102 -15 36 c-9 20 -63 154 -121 297 l-106 262&#xA;-45 6 c-60 8 -230 5 -322 -5z m458 -292 c62 -144 112 -267 112 -272 0 -6 -71&#xA;-21 -157 -34 -277 -41 -461 -98 -614 -187 -42 -24 -79 -44 -82 -44 -4 0 -7&#xA;150 -7 334 l0 334 41 35 c76 66 206 94 445 96 l151 1 111 -263z m-1052 242&#xA;c92 -13 173 -41 214 -76 l30 -25 0 -339 c0 -186 -1 -339 -3 -339 -2 0 -50 24&#xA;-108 54 -162 84 -357 141 -623 182 -58 9 -106 21 -106 26 0 10 193 474 212&#xA;511 8 15 26 17 158 17 82 0 183 -5 226 -11z" />
        <path d="M578 1613 c-21 -5 -22 -16 -7 -45 9 -17 8 -24 -6 -34 -10 -7 -22 -15&#xA;-27 -16 -6 -2 6 -32 27 -66 l36 -62 29 15 c28 15 29 14 63 -32 l34 -46 -26&#xA;-23 -25 -22 48 -56 c44 -52 50 -56 65 -41 25 22 33 19 76 -25 l39 -40 -23 -24&#xA;-22 -23 53 -47 52 -46 23 22 24 22 41 -41 c37 -37 40 -45 31 -66 -10 -22 -7&#xA;-27 45 -61 l55 -36 23 21 22 21 51 -28 c52 -29 52 -31 34 -80 -2 -6 22 -23 54&#xA;-37 52 -22 59 -23 70 -10 7 9 14 20 15 25 2 5 29 -1 61 -13 54 -21 58 -24 55&#xA;-52 -3 -26 1 -31 32 -42 79 -27 89 -27 96 0 7 28 22 31 90 14 43 -11 46 -14&#xA;42 -41 -5 -33 7 -38 88 -41 42 -2 48 1 53 21 3 13 9 23 14 23 4 -1 32 -1 62&#xA;-1 54 0 55 -1 55 -29 0 -25 4 -29 35 -34 58 -9 104 2 111 28 4 18 15 24 51 29&#xA;68 9 70 8 77 -20 7 -25 8 -26 69 -19 76 9 77 9 77 44 0 26 4 29 46 36 26 3 53&#xA;9 60 12 8 3 14 -1 14 -8 1 -37 15 -41 80 -23 59 16 62 18 58 46 -4 26 -1 29&#xA;51 49 l55 20 16 -21 16 -21 57 26 c59 27 64 34 48 64 -8 14 -1 22 44 46 53 29&#xA;54 29 74 11 20 -19 22 -18 76 18 50 33 54 39 44 57 -12 23 2 44 54 81 27 19&#xA;29 19 47 3 18 -16 21 -15 69 26 28 23 51 44 51 47 0 3 -7 13 -16 23 -21 23&#xA;-14 40 30 74 30 23 38 25 57 14 21 -11 27 -8 66 37 49 56 51 66 21 86 l-22 15&#xA;34 46 c33 46 53 57 65 37 13 -21 32 -8 64 47 32 53 33 57 16 69 -10 7 -22 15&#xA;-27 16 -6 2 -4 15 3 31 13 30 8 41 -27 51 -19 6 -27 -3 -62 -66 -108 -196&#xA;-326 -438 -512 -570 -621 -439 -1447 -427 -2049 28 -180 135 -360 340 -468&#xA;528 -26 47 -50 85 -53 85 -3 -1 -13 -3 -22 -6z" />
        <path d="M440 1020 c0 -50 103 -176 135 -164 37 14 0 86 -72 138 -51 37 -63&#xA;42 -63 26z" />
        <path d="M3870 1013 c-85 -56 -136 -141 -95 -157 22 -8 82 49 111 105 36 71&#xA;32 83 -16 52z" />
        <path d="M630 860 c0 -58 20 -122 42 -136 5 -3 16 0 24 7 26 21 2 104 -47 168&#xA;l-19 24 0 -63z" />
        <path d="M3687 878 c-34 -52 -53 -117 -40 -137 17 -28 32 -22 53 19 16 31 20&#xA;56 18 101 l-3 60 -28 -43z" />
        <path d="M490 852 c0 -4 13 -29 29 -54 30 -46 83 -84 101 -73 30 19 -18 84&#xA;-87 119 -36 18 -43 19 -43 8z" />
        <path d="M3809 840 c-40 -21 -89 -74 -89 -95 0 -45 70 -12 111 53 43 68 40 75&#xA;-22 42z" />
        <path d="M732 731 c6 -80 32 -133 63 -129 39 6 31 80 -16 152 -17 25 -36 46&#xA;-41 46 -7 0 -9 -25 -6 -69z" />
        <path d="M3569 749 c-41 -64 -48 -142 -14 -147 14 -2 26 7 39 29 21 36 34 153&#xA;18 163 -5 3 -25 -17 -43 -45z" />
        <path d="M550 702 c0 -11 71 -77 97 -91 12 -6 33 -11 47 -11 60 0 8 67 -71 94&#xA;-52 18 -73 20 -73 8z" />
        <path d="M3738 700 c-84 -25 -145 -100 -82 -100 14 0 35 5 47 11 26 14 97 80&#xA;97 91 0 10 -26 9 -62 -2z" />
        <path d="M853 603 c6 -76 38 -136 71 -131 17 3 21 9 18 38 -3 39 -39 105 -72&#xA;135 l-23 20 6 -62z" />
        <path d="M3466 629 c-37 -44 -55 -82 -58 -121 -3 -27 1 -34 18 -36 32 -5 65&#xA;55 71 128 3 33 3 60 0 60 -3 0 -17 -14 -31 -31z" />
        <path d="M656 549 c51 -57 174 -99 188 -64 15 39 -67 84 -153 85 l-54 0 19&#xA;-21z" />
        <path d="M3573 557 c-45 -17 -75 -49 -67 -71 14 -36 136 6 188 63 l19 21 -54&#xA;-1 c-30 0 -69 -6 -86 -12z" />
        <path d="M970 528 c0 -31 24 -96 46 -125 31 -41 64 -44 64 -7 0 34 -15 61 -58&#xA;107 -38 39 -52 46 -52 25z" />
        <path d="M3328 503 c-43 -46 -58 -73 -58 -107 0 -65 76 -3 99 79 21 77 12 83&#xA;-41 28z" />
        <path d="M418 463 c7 -3 16 -2 19 1 4 3 -2 6 -13 5 -11 0 -14 -3 -6 -6z" />
        <path d="M458 453 c7 -3 16 -2 19 1 4 3 -2 6 -13 5 -11 0 -14 -3 -6 -6z" />
        <path d="M3878 453 c7 -3 16 -2 19 1 4 3 -2 6 -13 5 -11 0 -14 -3 -6 -6z" />
        <path d="M498 443 c7 -3 16 -2 19 1 4 3 -2 6 -13 5 -11 0 -14 -3 -6 -6z" />
        <path d="M3838 443 c7 -3 16 -2 19 1 4 3 -2 6 -13 5 -11 0 -14 -3 -6 -6z" />
        <path d="M538 433 c7 -3 16 -2 19 1 4 3 -2 6 -13 5 -11 0 -14 -3 -6 -6z" />
        <path d="M796 431 c-4 -5 11 -20 31 -33 29 -17 53 -23 98 -23 71 0 81 19 25&#xA;47 -37 19 -145 25 -154 9z" />
        <path d="M3400 422 c-52 -25 -46 -46 14 -50 37 -2 61 3 102 24 37 19 50 30 42&#xA;36 -23 14 -122 9 -158 -10z" />
        <path d="M3798 433 c7 -3 16 -2 19 1 4 3 -2 6 -13 5 -11 0 -14 -3 -6 -6z" />
        <path d="M578 423 c7 -3 16 -2 19 1 4 3 -2 6 -13 5 -11 0 -14 -3 -6 -6z" />
        <path d="M1120 402 c0 -65 56 -150 82 -124 16 16 -15 91 -52 127 l-30 29 0&#xA;-32z" />
        <path d="M3194 398 c-62 -70 -69 -164 -9 -108 28 26 49 83 43 120 -3 23 -4 23&#xA;-34 -12z" />
        <path d="M3758 423 c7 -3 16 -2 19 1 4 3 -2 6 -13 5 -11 0 -14 -3 -6 -6z" />
        <path d="M618 413 c7 -3 16 -2 19 1 4 3 -2 6 -13 5 -11 0 -14 -3 -6 -6z" />
        <path d="M3718 413 c7 -3 16 -2 19 1 4 3 -2 6 -13 5 -11 0 -14 -3 -6 -6z" />
        <path d="M658 403 c7 -3 16 -2 19 1 4 3 -2 6 -13 5 -11 0 -14 -3 -6 -6z" />
        <path d="M698 393 c7 -3 16 -2 19 1 4 3 -2 6 -13 5 -11 0 -14 -3 -6 -6z" />
        <path d="M738 383 c7 -3 16 -2 19 1 4 3 -2 6 -13 5 -11 0 -14 -3 -6 -6z" />
        <path d="M778 373 c7 -3 16 -2 19 1 4 3 -2 6 -13 5 -11 0 -14 -3 -6 -6z" />
        <path d="M964 312 c34 -37 117 -74 154 -70 21 2 27 8 27 27 0 41 -43 63 -132&#xA;69 l-78 4 29 -30z" />
        <path d="M1244 324 c3 -9 6 -19 6 -24 0 -20 58 -74 99 -92 31 -13 41 -22 34&#xA;-29 -7 -7 -23 -4 -52 11 -51 25 -131 37 -157 22 -17 -9 -12 -14 41 -39 49 -22&#xA;72 -27 128 -26 55 2 88 -4 168 -32 181 -62 459 -107 664 -107 200 0 487 46&#xA;665 107 81 27 116 34 168 33 55 -2 79 3 131 27 58 26 61 29 40 38 -34 13 -111&#xA;2 -160 -23 -29 -15 -45 -18 -52 -11 -7 7 3 16 34 29 24 11 54 30 66 43 21 23&#xA;47 78 40 85 -10 11 -93 -46 -140 -96 -63 -67 -79 -76 -199 -119 -111 -38 -264&#xA;-68 -446 -85 -120 -11 -165 -11 -290 0 -176 17 -288 36 -401 70 -136 41 -180&#xA;65 -256 141 -68 67 -145 113 -131 77z" />
        <path d="M3265 329 c-46 -14 -67 -34 -63 -61 2 -16 10 -24 30 -26 36 -4 119&#xA;33 154 69 l28 29 -60 -1 c-32 0 -72 -5 -89 -10z" />
        <path d="M1502 298 c15 -43 148 -102 148 -66 0 23 -34 48 -86 64 -57 17 -67&#xA;17 -62 2z" />
        <path d="M2787 296 c-51 -14 -87 -40 -87 -64 0 -36 133 23 148 66 4 14 0 14&#xA;-61 -2z" />
        <path d="M1650 291 c0 -14 77 -70 108 -78 31 -8 50 11 32 32 -28 34 -140 71&#xA;-140 46z" />
        <path d="M2626 285 c-65 -23 -99 -75 -50 -75 33 0 124 60 124 82 0 12 -29 9&#xA;-74 -7z" />
        <path d="M1839 231 c30 -38 84 -71 115 -71 21 0 20 33 -2 53 -23 21 -102 56&#xA;-125 57 -16 0 -14 -6 12 -39z" />
        <path d="M2453 246 c-66 -31 -99 -86 -52 -86 29 0 84 35 109 70 35 49 22 52&#xA;-57 16z" />
        <path d="M878 243 c6 -2 18 -2 25 0 6 3 1 5 -13 5 -14 0 -19 -2 -12 -5z" />
        <path d="M3448 243 c6 -2 18 -2 25 0 6 3 1 5 -13 5 -14 0 -19 -2 -12 -5z" />
        <path d="M938 233 c6 -2 18 -2 25 0 6 3 1 5 -13 5 -14 0 -19 -2 -12 -5z" />
        <path d="M2005 210 c53 -57 155 -93 155 -56 0 34 -60 68 -140 81 l-45 7 30&#xA;-32z" />
        <path d="M2303 230 c-65 -13 -113 -45 -113 -76 0 -37 101 -1 154 55 32 33 29&#xA;34 -41 21z" />
        <path d="M3388 233 c6 -2 18 -2 25 0 6 3 1 5 -13 5 -14 0 -19 -2 -12 -5z" />
        <path d="M998 223 c6 -2 18 -2 25 0 6 3 1 5 -13 5 -14 0 -19 -2 -12 -5z" />
        <path d="M3328 223 c6 -2 18 -2 25 0 6 3 1 5 -13 5 -14 0 -19 -2 -12 -5z" />
        <path d="M1058 213 c6 -2 18 -2 25 0 6 3 1 5 -13 5 -14 0 -19 -2 -12 -5z" />
        <path d="M3268 213 c6 -2 18 -2 25 0 6 3 1 5 -13 5 -14 0 -19 -2 -12 -5z" />
        <path d="M1710 181 c-14 -4 -41 -16 -60 -26 l-35 -19 25 -7 c71 -20 175 3 168&#xA;38 -4 20 -55 27 -98 14z" />
        <path d="M2548 184 c-40 -40 75 -79 160 -55 23 6 22 7 -17 29 -42 24 -130 40&#xA;-143 26z" />
        <path d="M1895 131 c-39 -10 -75 -29 -75 -41 0 -13 106 -13 131 0 19 11 27 40&#xA;10 40 -5 0 -15 2 -23 4 -7 2 -26 1 -43 -3z" />
        <path d="M2398 133 c-27 -7 -22 -32 8 -43 34 -13 124 -13 124 1 0 19 -98 50&#xA;-132 42z" />
        <path d="M2075 109 c-16 -5 -43 -20 -60 -34 l-30 -26 55 4 c68 6 112 25 108&#xA;46 -4 19 -32 23 -73 10z" />
        <path d="M2208 114 c-28 -28 48 -68 118 -62 l39 3 -41 28 c-42 28 -103 45&#xA;-116 31z" />
    </g>
</svg>